<svg xmlns="http://www.w3.org/2000/svg" xmlns:xlink="http://www.w3.org/1999/xlink" width="274" height="128" viewBox="0 0 274 128">
  <defs>
    <filter id="Rectangle_62" x="0" y="0" width="274" height="128" filterUnits="userSpaceOnUse">
      <feOffset dy="10" input="SourceAlpha"/>
      <feGaussianBlur stdDeviation="15" result="blur"/>
      <feFlood flood-color="#acb7c2" flood-opacity="0.2"/>
      <feComposite operator="in" in2="blur"/>
      <feComposite in="SourceGraphic"/>
    </filter>
  </defs>
  <g id="Group_191" data-name="Group 191" transform="translate(-1000 -796)">
    <g transform="matrix(1, 0, 0, 1, 1000, 796)" filter="url(#Rectangle_62)">
      <rect id="Rectangle_62-2" data-name="Rectangle 62" width="184" height="38" rx="6" transform="translate(45 35)" fill="#fff"/>
    </g>
    <path id="Path_2810" data-name="Path 2810" d="M2.434-3.705V0H1.285V-9.8H3.979a3.555,3.555,0,0,1,2.437.766,2.734,2.734,0,0,1,.865,2.16,2.971,2.971,0,0,1-.96,2.283,3.67,3.67,0,0,1-2.594.889Zm0-5.059v4.02h1.2a2.69,2.69,0,0,0,1.815-.543,1.924,1.924,0,0,0,.625-1.535q0-1.941-2.3-1.941ZM11.382.164A3.247,3.247,0,0,1,8.9-.817a3.634,3.634,0,0,1-.926-2.6,3.785,3.785,0,0,1,.964-2.755,3.465,3.465,0,0,1,2.6-.991A3.14,3.14,0,0,1,13.99-6.2a3.822,3.822,0,0,1,.878,2.673,3.761,3.761,0,0,1-.947,2.683A3.317,3.317,0,0,1,11.382.164Zm.082-6.385a2.132,2.132,0,0,0-1.709.735,3.018,3.018,0,0,0-.629,2.027A2.854,2.854,0,0,0,9.762-1.5a2.161,2.161,0,0,0,1.7.718,2.049,2.049,0,0,0,1.671-.7,3.055,3.055,0,0,0,.584-2,3.108,3.108,0,0,0-.584-2.023A2.04,2.04,0,0,0,11.464-6.221ZM25.478-7l-2.1,7H22.217L20.774-5.011a3.265,3.265,0,0,1-.109-.649h-.027a3.066,3.066,0,0,1-.144.636L18.929,0H17.808L15.688-7h1.176l1.449,5.264a3.171,3.171,0,0,1,.1.629h.055a2.942,2.942,0,0,1,.123-.643L20.2-7h1.025l1.449,5.277a3.768,3.768,0,0,1,.1.629h.055a2.909,2.909,0,0,1,.116-.629L24.37-7ZM32.4-3.22H27.46a2.618,2.618,0,0,0,.629,1.8,2.168,2.168,0,0,0,1.654.636,3.439,3.439,0,0,0,2.174-.779V-.506a4.063,4.063,0,0,1-2.44.67A2.959,2.959,0,0,1,27.146-.79,3.9,3.9,0,0,1,26.3-3.473a3.828,3.828,0,0,1,.926-2.663,2.97,2.97,0,0,1,2.3-1.029,2.632,2.632,0,0,1,2.126.889A3.705,3.705,0,0,1,32.4-3.808Zm-1.148-.95a2.281,2.281,0,0,0-.468-1.511,1.6,1.6,0,0,0-1.282-.54,1.811,1.811,0,0,0-1.347.567,2.575,2.575,0,0,0-.684,1.483Zm6.494-1.7a1.371,1.371,0,0,0-.848-.226,1.431,1.431,0,0,0-1.2.677,3.129,3.129,0,0,0-.482,1.846V0H34.1V-7h1.121v1.442h.027a2.444,2.444,0,0,1,.731-1.152,1.668,1.668,0,0,1,1.1-.414,1.83,1.83,0,0,1,.67.1ZM44.591-3.22H39.648a2.618,2.618,0,0,0,.629,1.8,2.168,2.168,0,0,0,1.654.636,3.439,3.439,0,0,0,2.174-.779V-.506a4.063,4.063,0,0,1-2.44.67A2.959,2.959,0,0,1,39.334-.79a3.9,3.9,0,0,1-.848-2.683,3.828,3.828,0,0,1,.926-2.663,2.97,2.97,0,0,1,2.3-1.029,2.632,2.632,0,0,1,2.126.889,3.705,3.705,0,0,1,.752,2.468Zm-1.148-.95a2.281,2.281,0,0,0-.468-1.511,1.6,1.6,0,0,0-1.282-.54,1.811,1.811,0,0,0-1.347.567,2.575,2.575,0,0,0-.684,1.483ZM52.261,0H51.14V-1.189h-.027A2.588,2.588,0,0,1,48.706.164,2.615,2.615,0,0,1,46.6-.776a3.856,3.856,0,0,1-.79-2.56,4.2,4.2,0,0,1,.875-2.782,2.886,2.886,0,0,1,2.331-1.046,2.244,2.244,0,0,1,2.1,1.135h.027v-4.334h1.121ZM51.14-3.165V-4.2a2,2,0,0,0-.561-1.436,1.88,1.88,0,0,0-1.422-.588,1.936,1.936,0,0,0-1.613.752,3.3,3.3,0,0,0-.588,2.078A2.964,2.964,0,0,0,47.52-1.48a1.843,1.843,0,0,0,1.514.7,1.915,1.915,0,0,0,1.521-.677A2.521,2.521,0,0,0,51.14-3.165ZM58.516,0V-9.8H61.3a3.048,3.048,0,0,1,2.017.622,2.01,2.01,0,0,1,.745,1.62,2.384,2.384,0,0,1-.451,1.449,2.433,2.433,0,0,1-1.244.875v.027a2.494,2.494,0,0,1,1.586.749,2.3,2.3,0,0,1,.595,1.644,2.563,2.563,0,0,1-.9,2.037A3.358,3.358,0,0,1,61.373,0Zm1.148-8.764V-5.6H60.84a2.233,2.233,0,0,0,1.483-.455,1.583,1.583,0,0,0,.54-1.282q0-1.429-1.88-1.429Zm0,4.2v3.527h1.559a2.335,2.335,0,0,0,1.569-.479,1.639,1.639,0,0,0,.557-1.312q0-1.736-2.365-1.736ZM71.962-7l-3.22,8.121q-.861,2.174-2.42,2.174a2.565,2.565,0,0,1-.731-.089v-1a2.078,2.078,0,0,0,.663.123,1.374,1.374,0,0,0,1.271-1.012l.561-1.326L65.352-7H66.6l1.894,5.387q.034.1.144.533h.041q.034-.164.137-.52L70.8-7Z" transform="translate(1052.152 854.418)" fill="#5f6368"/>
    <g id="Layer_x0020_1" transform="translate(1137.269 839.418)">
      <g id="_2337347917168" transform="translate(0 0)">
        <path id="Path_2452" data-name="Path 2452" d="M5.821,4.859C5.821,1.008,8.89.1,14.048.1h6.731c8.15,0,9.208,1.234,9.156,4.96H24.209V4.7c0-.944-.98-1.217-2.682-1.217H15.286c-3.017,0-3.585,1-3.585,2.634v3.4c0,1.907.568,2.633,3.275,2.633h6.112c2.579,0,3.353-.182,3.353-1.816h5.726V11.56c0,2.216-1.136,3.959-6.886,3.959H14.048c-5.158,0-8.227-.908-8.227-4.759v-5.9Z" transform="translate(-5.799 -0.1)" fill="#1d1d1e"/>
        <path id="Path_2453" data-name="Path 2453" d="M7303.776,3.244h10.478c1.729,0,2.347.506,2.347,1.392v.507c0,.777-.516,1.392-1.857,1.392h-10.968V3.244Zm-5.726,12.128h5.726V9.787h13.444c4.049,0,5.261-2.241,5.261-4.194V4.473c0-2.567-1.316-4.483-6.757-4.483H7298.05V15.372Z" transform="translate(-7270.417 0.01)" fill="#1d1d1e"/>
        <path id="Path_2454" data-name="Path 2454" d="M14584.5.09h8.794L14596.788,9l3.488-8.911h8.793V15.472h-5.57V3.777h-.049l-4.521,11.7h-4.281l-4.526-11.7h-.051v11.7h-5.571Z" transform="translate(-14529.278 -0.09)" fill="#1d1d1e"/>
        <path id="Path_2455" data-name="Path 2455" d="M24.469,4780.806H0v-1.485H24.469Z" transform="translate(0 -4761.224)" fill="#2980be"/>
        <path id="Path_2456" data-name="Path 2456" d="M7332.949,4780.806H7308.48v-1.485h24.469Z" transform="translate(-7280.808 -4761.224)" fill="#6fb236"/>
        <path id="Path_2457" data-name="Path 2457" d="M14622.969,4780.806H14598.5v-1.485h24.469Z" transform="translate(-14543.226 -4761.224)" fill="#e41d2b"/>
      </g>
    </g>
  </g>
</svg>
