<svg xmlns="http://www.w3.org/2000/svg" width="247.786" height="70.038" viewBox="0 0 247.786 70.038">
  <g id="Layer_x0020_1" transform="translate(-0.012 0.01)">
    <g id="_2337032560672" transform="translate(0.012 -0.01)">
      <path id="Path_1" data-name="Path 1" d="M1266.38,205.016v32.522a2.335,2.335,0,0,0,2.493,2.153c1.885,0,3.642.312,4.49-1.176.425-.746.269-2.145.269-3.244V214.308c.273.1.144.047.308.259.018.022.246.409.255.425,2.772,4.983,6.32,11.423,9.117,16.153.625,1.055,3.3,5.943,3.9,6.751,1.7,2.31,3.978,1.795,7.383,1.795a2.37,2.37,0,0,0,2.494-2.266v-28.9h51.785c1.81,0,1.36-2.489,1.36-4.306,0-.748-.812-1.247-1.587-1.247H1292.1a2.38,2.38,0,0,0-2.045,1.356c-.424.969-.223,8.575-.223,9.976v13.6l-13.191-23.3a3.966,3.966,0,0,0-3.467-1.746c-1.832,0-4.936-.3-6.028.544A2.256,2.256,0,0,0,1266.38,205.016Z" transform="translate(-1158.454 -185.525)" fill-rule="evenodd"/>
      <path id="Path_2" data-name="Path 2" d="M1667.992,319.342a6.026,6.026,0,0,1,5.554,3.058,7.426,7.426,0,0,1,.678,2.155h-12.239c0-2.632,2.621-5.213,6.006-5.213Zm-13.372,8.045a17.236,17.236,0,0,0,1.018,5.667,13.212,13.212,0,0,0,6.354,7.244c4.311,2.24,10.482,1.633,14.34-.945,4.092-2.733,5.168-7.094,2.991-7.094h-4.533c-1.58,0-2.09,3.4-6,3.4-2.183,0-3.5-.147-5.131-1.783-1.456-1.464-1.447-2.558-1.783-4h16.317c1.815,0,3.174-.008,3.174-2.606a15.471,15.471,0,0,0-1.052-5.521,12.136,12.136,0,0,0-11.867-7.963c-4.572,0-7.163,1.118-10.113,4.051a14.5,14.5,0,0,0-3.712,9.547Z" transform="translate(-1513.607 -287.047)" fill-rule="evenodd"/>
      <path id="Path_3" data-name="Path 3" d="M2606.589,318.968a6.443,6.443,0,0,1,4.334,1.445,5.5,5.5,0,0,1,1.9,3.768h-12.239c.158-.329.365-2.521,1.858-3.7a6.254,6.254,0,0,1,4.148-1.518Zm-13.258,7.819a14.912,14.912,0,0,0,2.23,8.422,12.847,12.847,0,0,0,10.574,6.082,15,15,0,0,0,8.763-2.229c3.961-2.456,5.3-7.177,3.136-7.177h-4.42c-1.872,0-2.126,3.4-6.119,3.4-1.883,0-3.249-.041-4.791-1.442a5.985,5.985,0,0,1-2.122-4.338h17.45c3.815,0,1.482-7.812-.089-10.335-4.658-7.476-16.392-7.627-21.619-.949a14.31,14.31,0,0,0-2.994,8.564Z" transform="translate(-2372.316 -286.672)" fill-rule="evenodd"/>
      <path id="Path_4" data-name="Path 4" d="M560.665,54.932Zm0,0c1.909,1.011,4.241,3.513,6.912,3.513.368-.55.436-.6.281-1.525-.878-5.2-4.639-11.791-7-16.568l-1.049-1.9c-.157-.262-.205-.406-.351-.668-.256-.462-.493-.828-.752-1.289-.951-1.7-1.936-3.285-2.9-4.914-.493-.829-.985-1.613-1.526-2.44s-1.006-1.627-1.54-2.426a107.773,107.773,0,0,0-6.669-9.2,37.9,37.9,0,0,0-4.889-4.856l-3.323-2.684A18.082,18.082,0,0,1,535.874,8.1l-.869-1.058a26.674,26.674,0,0,0-4.919-5.053A8.62,8.62,0,0,0,521,1.33a7.274,7.274,0,0,0-3.57,4.363,30.267,30.267,0,0,1-2.834,5.113c-.47.735-.222.628.735.616.681-.009,1.363,0,2.044,0a17.731,17.731,0,0,1-1.474,2.834c1.719-.038,7.1-2.183,8.137,1.156.777,2.5.874,6.232,1.657,8.995a17.369,17.369,0,0,0,3.691,6.961c.932,1.2,4.634,4.853,5.512,5.165.511.182.669-.055.511-.4a4.22,4.22,0,0,0-.669-.72l-2.5-2.83a19.159,19.159,0,0,1-1.16-1.56c-5.344-8.069-3.3-10.973-5.026-16.276a3.583,3.583,0,0,0-2.612-2.714c-2.356-.612-3.015.066-4.713.066a15.136,15.136,0,0,1,1.247-2.266h-2.267l1.19-2.1c.4-.808.536-1.7.966-2.433,2.048-3.5,6.383-3.573,9.225-1.413a24.4,24.4,0,0,1,3.379,3.42c.268.3.458.545.715.872s.486.65.758.942a23.793,23.793,0,0,0,3.533,3.267,24.921,24.921,0,0,1,2.815,2.285,8.156,8.156,0,0,0,.893.807,14.077,14.077,0,0,1,1.656,1.744l1.641,1.759c3.764,4.233,6.631,9.248,9.7,13.987a130.151,130.151,0,0,1,7.177,13.108l2.135,4.665a41.224,41.224,0,0,1,1.929,4.87L560.073,51.9a111.566,111.566,0,0,1-9.582-7.415,60.361,60.361,0,0,1-5.79-5.541c-.536-.672-1.876-1.944-2.688-2.978a70.523,70.523,0,0,1-9.642-15.288c-.265-.525-.488-1.045-.716-1.551-.262-.585-.246-1.227-1.022-1.244a3.858,3.858,0,0,0,.25,1.9c.156.624.329,1.37.528,1.964a32.231,32.231,0,0,0,2.13,5.123l1.774,3.212a51.453,51.453,0,0,0,5.714,7.657,6.619,6.619,0,0,1,.58.667,8.389,8.389,0,0,0,.614.632c.27.28.308.408.563.683a77.149,77.149,0,0,0,6.221,6.016c1.363,1.09,2.591,2.314,3.965,3.4l4.847,3.766c.71.532,1.4,3.46,1.792,4.442l1.266,3.608a16.121,16.121,0,0,1,1.148,3.838,1.833,1.833,0,0,1-1.466.337c-1.653-.133-1.518-.729-2.4-3.383l-1.444-4.222c-.176-.532-.229-.985-.7-1.231-.269.18-.326.116-.3.518.008.141.15.711.179.851l.964,4.816c.156.7.714,2.61.393,3.207a5.676,5.676,0,0,1-1.737,1.673c-.5.1-.32-.019-.4-.072-.334-.121-.114.164-.336-.343l-3.828-15.89c-.123-.488-.143-.643-.6-.764-.574.422-.082,1.856.02,2.587.66,4.727,1.644,9.653,2.442,14.329a6.011,6.011,0,0,0,.738,2.548,1.693,1.693,0,0,0,2.4.192c1.345-.926,1.871-2.617,3.92-2.767,1.876-.137,4.922.75,4.258-2.339-.235-1.093-2.118-6.029-2.628-7.345a12.537,12.537,0,0,1-.841-2.558Z" transform="translate(-470.53 -0.313)" fill-rule="evenodd"/>
      <path id="Path_5" data-name="Path 5" d="M1984.564,321.641a6.234,6.234,0,0,0,2.068,4.958c3.876,3.9,13.909,3.268,13.909,6.146,0,2.224-2.071,2.946-4.419,2.946-5.727,0-4.812-3.74-7.026-3.74h-3.74c-2.318,0-1.912,4.526,2.471,7.275a15.077,15.077,0,0,0,8.634,2.131c4.733,0,9.869-2.1,11.04-6.638a7.585,7.585,0,0,0-.383-5.038,7.215,7.215,0,0,0-1.9-2.517,7.535,7.535,0,0,0-.867-.607c-2.938-1.974-10.89-2.7-12.189-4.129-1.168-1.289-.1-3.622,3.056-3.622,5.2,0,4.565,1.818,5.916,2.922.627.512,4.7.47,5.288.124,1.229-.726.589-4.017-3.045-6.446-5.531-3.7-18.812-2.425-18.812,6.233Z" transform="translate(-1814.881 -286.738)" fill-rule="evenodd"/>
      <path id="Path_6" data-name="Path 6" d="M2269.32,206.684V214.5c-2.951,0-3.06.23-3.06,3.173,0,2.23,1.48,1.926,3.06,1.926v11.9c0,4.172,1.635,7.572,5.2,8.855a16.068,16.068,0,0,0,6.021.664c2.327,0,1.927-1.808,1.927-3.853a1.654,1.654,0,0,0-1.271-1.676,8.82,8.82,0,0,1-2.6-.346c-1.409-.508-2.136-1.862-2.136-3.758V219.6h4.646c2.4,0,1.444-4.082,1.295-4.354a1.783,1.783,0,0,0-1.522-.745h-4.419v-8.386a2.062,2.062,0,0,0-2.04-1.813c-2.432,0-5.1-.554-5.1,2.38Z" transform="translate(-2073.121 -186.853)" fill-rule="evenodd"/>
      <path id="Path_7" data-name="Path 7" d="M2478.99,206.984v31.276c0,3.32,2.458,2.72,5.213,2.72a2.206,2.206,0,0,0,2.154-2.379V206.644c0-2.961-2.725-2.379-5.327-2.379C2479.617,204.264,2478.99,205.535,2478.99,206.984Z" transform="translate(-2267.72 -186.813)" fill-rule="evenodd"/>
      <path id="Path_8" data-name="Path 8" d="M5.16,313.88c0,1.167.34.926.34,1.926,0,.926-.34.966-.34,2.38,0,1.52,1.814,3.033,1.814,3.74a12.637,12.637,0,0,1-.221,1.485c-.294,3.115,1.242,4.127,2.648,5.946.549.71,1.121,1.067,1.653,1.861-.921.214-5.77,2.358-6.751,2.768-4.631,1.938-4.5,4.379-4.128,8.79,3.258,0,1.5-1.385,2.2-4.6a2.776,2.776,0,0,1,1.5-1.9,16.883,16.883,0,0,1,2.338-1.063L13.4,332.2c3.025-1.308,4.732-.93,7.715,1.075a33.2,33.2,0,0,1,3.422,2.811c.246-.164.35-.291.631-.5s.46-.337.73-.516c-.313-1.343-6.257-5.552-8.839-5.552-2.048,0-2.761.591-3.677.4-1.01-.214-1.5-1.047-2.3-1.9-1.181-1.261-2.8-3.082-2.068-4.618a9.673,9.673,0,0,0,2.608,1.471,12.385,12.385,0,0,0,3.4.8,14.221,14.221,0,0,1-.34-1.7c-2.673-.622-8.24-4.032-6.913-6.8.418.222.541.389.953.634,1.7,1.018,4.468,2.21,6.431,1.651,3.224-.918,2.679-1.768,8.1.024.5.167.765.269,1.241.459.441.176.828.367,1.2.506,1.325.5,1.419-.078,1.912-1.007a8.842,8.842,0,0,1-1.133-.567,26.091,26.091,0,0,0-3.555-1.546c-1.58-.537-3.766-1.354-5.642-.851-2.434.652-2.359,1.51-5.324.6s-6.914-3.289-.892-4.889A19.865,19.865,0,0,1,15.7,311.5l.68-1.7c-2.891,0-7.193.67-9.428,2.016-.65.393-1.79,1.106-1.79,2.063Z" transform="translate(-0.012 -283.397)" fill-rule="evenodd"/>
      <path id="Path_9" data-name="Path 9" d="M.512,4.184a3.733,3.733,0,0,0,1.927,3.4,5.312,5.312,0,0,0,4.49,5.142c.937.169.4.034.92.667.363.44.683.418.936.764-2.044.17-3.9.3-5.373,1.766-.04.04-.138.147-.164.176-1.008,1.108-.177,1.122-1.022,1.7A3.035,3.035,0,0,0,.886,19.291a4.183,4.183,0,0,0,2.359,5.617c2.33.9,3.43-.349,3.965-.4.5-.048,1.968.7,3.823-.511a3.9,3.9,0,0,0,.834-.758c.336-.375.085-.24.407-.319.01,0,.382-.011.592-.029,3.184-.281,4.414-4.853,2.52-2.927A6.121,6.121,0,0,1,11.278,21.3c-1.218,1.818-2.791,2-4.646,1.02-.319.213-.323.342-.712.534A2.265,2.265,0,0,1,3.2,19.338a2.57,2.57,0,0,1,.539-.481c.594-.412.234.107.453-.568a3.139,3.139,0,0,1,2-2.081c2.238-.85,2.405.179,3.364-.715,1.37-1.277,2.743-.506,2.743-1.451,0-.818-2.035-.061-3.421-2.358-.5-.823-.216-.564-1.308-.732a4.265,4.265,0,0,1-3.43-4.39C1.455,5.143,2.854,2.144,4.7,2.144a2.056,2.056,0,0,1,2.04.906A4.525,4.525,0,0,1,11.78,5.04c.214.347.422,1.217.562,1.364.427.446,2.233-.044,3.031,2.749.159.558.1,1.048.551,1.376.711-.19.412-1.156,1.022-2.152a7.087,7.087,0,0,0,.653-.932c.156-.391.379-4.056,4.1-4.056a2.251,2.251,0,0,1,4.306.68c0,.722-.106,1.826-.907,2.04.385,1.65.381,3.188-1.636,4.029-1.306.544-.294,1.353-1.97,2.677-1.087.858-1.832.724-1.832,1.227,0,.942,3.774.076,4.431-1.8a1.822,1.822,0,0,1,.209-.585c.179-.228,1.161-.469,1.822-1.35,1.646-2.19.791-3.121.968-3.69.216-.69.956-.469.956-2.886A4.376,4.376,0,0,0,26.78,1.147a4.266,4.266,0,0,0-6.058.24c-.325.4.02.234-.485.421a8.5,8.5,0,0,0-1.459.468A5.379,5.379,0,0,0,16.038,6.9h-.226A2.282,2.282,0,0,0,13.658,5.09c-.11-1.318-1.662-3.079-3.217-3.7C9,.823,8.1,1.379,7.451.985A3.964,3.964,0,0,0,4.819-.01,4.3,4.3,0,0,0,.512,4.183Z" transform="translate(-0.464 0.01)" fill-rule="evenodd"/>
      <path id="Path_10" data-name="Path 10" d="M166.025,512.622a8.37,8.37,0,0,0,1.814-1.474c-.281-.419-.613-.807-.907-1.246l-7.607,5.649a6.535,6.535,0,0,1-1.118.809c0-3.473-.37-5.164-4-6.552-.781-.3-2.137.867-2.234,1a7.6,7.6,0,0,1,1.669.6c2.246.959,2.864,1.944,2.864,4.5a3.708,3.708,0,0,1-2.766,3.807c-2.87,1.088-4.26-.374-4.26,2.426,2.3,0,3.639,0,5.673-1.126a74.935,74.935,0,0,0,6.1-4.556l2.3-1.782a9.173,9.173,0,0,1,.778-.582,12.313,12.313,0,0,0,2.3,1.663c3.924,1.958,5.894,1.248,9.64.308,3.085-.775,7.749-.612,11.287-.612,1.155,0,2.863.1,3.95-.016a17.832,17.832,0,0,0,9.549-4.275c.425-.338.69-.592,1.092-.949.225-.2.281-.2.508-.4a35.495,35.495,0,0,0,3.292-3.734,21.946,21.946,0,0,0,2.913-5.133,8.36,8.36,0,0,0-1.7-1.02,15.921,15.921,0,0,1-1.24,2.386,25.943,25.943,0,0,1-6.838,7.667,18.147,18.147,0,0,1-4.627,2.626,15.347,15.347,0,0,1-3.094.646c-3.044.438-9.382-.385-14.2.418-3.278.547-5.615,2.058-8.948.5a5.566,5.566,0,0,1-2.189-1.55Z" transform="translate(-136.742 -457.323)" fill-rule="evenodd"/>
      <path id="Path_11" data-name="Path 11" d="M2613.274,201.882c0,.873-.09,2.267,1.133,2.267h21.53c2.068,0,1.587-2.123,1.587-4.42,0-2.442-3.064-1.586-4.523-1.463l-18.14,1.8C2613.735,200.154,2613.274,200.682,2613.274,201.882Z" transform="translate(-2390.559 -181.144)" fill-rule="evenodd"/>
      <path id="Path_12" data-name="Path 12" d="M408.665,474.6a8.827,8.827,0,0,0-1.83-3.271c-2.435-3.018-4.853-1.844-7.673-.679-.412.169-.9.366-1.339.587l-2.606,1.247a15.427,15.427,0,0,0-2.418,1.436,9.553,9.553,0,0,0,.793,1.247c.856-.2,7-3.626,9.179-3.626a2.656,2.656,0,0,1,2.64,1.326,14.851,14.851,0,0,1,1.213,2.187c-.381.032-.788.157-1.151.209-.49.07-.7.088-1.208.152a20.546,20.546,0,0,1-2.63.2c-.626,0-.728.089-1.243.117-.416.022-.956-.043-1.352.008a1,1,0,0,0-.829.532,3.506,3.506,0,0,0-.313,1.16c5.182,0,10.387-.357,14.911-2.087a16.118,16.118,0,0,0,1.951-.883c1.2-.664.648-.2,2.856-.2a9.005,9.005,0,0,0,4.087-1.353c2.592-1.564,2.033-1.51,2.033-3.293a1.6,1.6,0,0,0-.707.426c-1.4,1.195-3.482,2.427-5.448,2.319-.225-.013-.408-.026-.643-.026a37.214,37.214,0,0,1,2.6-3.855l.992-1.162a17.149,17.149,0,0,1,3.564-2.894c.787-.5,1.1-.464,1.226-.928a7.637,7.637,0,0,1-1.36-.793c-.976,0-3.427,2.121-4.052,2.748a23.982,23.982,0,0,0-3.179,3.621l-1.4,2a6.938,6.938,0,0,1-1.7,1.7C411.9,473.9,409.3,474.3,408.665,474.6Z" transform="translate(-359.325 -423.266)" fill-rule="evenodd"/>
      <path id="Path_13" data-name="Path 13" d="M201.34,101.587l2.38-.113a53.033,53.033,0,0,1,3.065-6.114,24.775,24.775,0,0,1,1.856-2.677l2.131-2.516a21.852,21.852,0,0,0,1.924-2.608c1.635-2.605,1.63-5.438,2.532-6.76.993-1.456,2.174-1.649,3.791-1.649,1.359,0,1.761,1.02,4.533,1.02-.277.522-.889,1.1-1.02,1.586a6.676,6.676,0,0,1,1.474,1.133,4.514,4.514,0,0,0-2.334,1.633,8.052,8.052,0,0,0-1.1,1.867c-.126.424-.082.358.143.693.7-.164.887-.7,1.329-1.164,1.669-1.743,3.451-1.878,4.9-2.575a30.491,30.491,0,0,0-2.493-1.927,8.456,8.456,0,0,1,.929-1.451c.348-.522.661-.994,1-1.5a16.138,16.138,0,0,1-4.284-.248c-1.745-.55-1.607-1.112-4.1-1.112a5.649,5.649,0,0,0-3.628,1.472c-2.726,2.084-1.2,6.135-5.748,10.909a32.458,32.458,0,0,0-5.733,8.43c-.3.63-.506,1.172-.793,1.814l-.754,1.852Z" transform="translate(-184.182 -70.538)" fill-rule="evenodd"/>
      <path id="Path_14" data-name="Path 14" d="M328.855,202.667c-1.4,0-1.9-.453-3.626-.453a5.613,5.613,0,0,0-4.421,2.264c-2.183,3.049-.553,5.049-2.33,7.755-.709,1.079-3.871,5.112-4.127,6.071a17.272,17.272,0,0,1,1.813.907c1.168-1.745,4.144-5.694,4.838-7.173,1.2-2.557-.4-4.351,2.1-6.852,1.563-1.566,3.678-.706,5.3-.706a5.662,5.662,0,0,0,1.586-.34,11.221,11.221,0,0,1-.68,1.814c.657.153,1.113.517,1.814.68a10.73,10.73,0,0,0-2.56,3.22c-1.557,2.6-1.264,5.659-.613,8.452.539-.012.695.041.68-1.473-.069-7.072,5.1-9.956,5.438-10.425-.713-.166-2.2-1.081-2.833-1.134.018-.818.917-2.246,1.134-3.173a12.038,12.038,0,0,0-1.728.312,8.661,8.661,0,0,1-1.785.255Z" transform="translate(-287.561 -184.875)" fill-rule="evenodd"/>
      <path id="Path_15" data-name="Path 15" d="M887.43,35.611c.626.419.793.98,1.36,1.359a6.491,6.491,0,0,0,1.133-1.36l2.018-3.082c.39-.6.658-1.318,1.156-1.451,0,1.793.552,2.877,1.812,3.4,2.925,1.216,9.334-2.045,12.24-2.721V29.6a9.436,9.436,0,0,0-1.28.42l-3.749,1.351c-2.555.845-7.1,2.926-7.1-.411,0-2.783,2.1-6.367,2.153-7.025h-2.039c-.316.471-.556.982-.871,1.508s-.56.972-.9,1.484L888.516,34.2C888.145,34.721,887.76,35.119,887.43,35.611Z" transform="translate(-811.8 -21.899)" fill-rule="evenodd"/>
      <path id="Path_16" data-name="Path 16" d="M174.751,437.031a1.878,1.878,0,0,0,.148.872c.741,1.661,3.644-1.833,5.564,1.121a9.981,9.981,0,0,1,.972,1.974c-.893.429-3.759.453-5.213.453.184,2.2,1.357,1.713,4.191,1.585.725-.033,1.461-.281,2.155-.338,3.808,5.685,9.593,4.992,14.958,2.153a11.779,11.779,0,0,1-.453-1.586c-1.115.259-8.617,5.619-13.1-1.975-.7-1.191-1.832-3.937-2.812-4.668-1.416-1.057-2.887-.822-4.531-.313-.657.2-1.271.579-1.884.722Z" transform="translate(-159.858 -398.73)" fill-rule="evenodd"/>
      <path id="Path_17" data-name="Path 17" d="M471.445,435.846h-.34c-1.1,0-1.133-3.118-1.133-4.42a24.025,24.025,0,0,0-3.429.537,31.617,31.617,0,0,0-8.583,3.429,11.661,11.661,0,0,1,.453,1.586l2.078-1.1c1.827-.914,5.35-2.191,7.441-2.191.282,1.213.308,3.54,2.233,4.227,1.713.612,3.38-.943,4.254-1.819a17.347,17.347,0,0,0,1.559-1.615c1.244-1.616,3.185-3.765,4.306-5.439a15.05,15.05,0,0,1-1.36-.907c-.647.966-1.742,2.21-2.509,3.158-.935,1.155-3.765,4.549-4.97,4.549Z" transform="translate(-418.932 -391.651)" fill-rule="evenodd"/>
      <path id="Path_18" data-name="Path 18" d="M944.61,146.966a5.187,5.187,0,0,0,1.133,1.7c1.632-.38,2.888-1.481,6.458-1.474a28.285,28.285,0,0,0,7.253-.793v-1.587a45.164,45.164,0,0,1-5.892.68c-.433,0-.041.035-.34-.113.049-.586.287-.473.789-.684.326-.137.716-.3,1.041-.433.736-.294,1.344-.561,2.087-.859l4.356-1.65V139.6c-.776.181-7.866,3.1-8.65,3.475l-6.194,2.871a10.469,10.469,0,0,1-2.04,1.019Z" transform="translate(-864.107 -127.702)" fill-rule="evenodd"/>
      <path id="Path_19" data-name="Path 19" d="M322.34,418.072c0,.952,0,1.755,1.019,2.38,1.408.864,3.623.52,5.167.18a20.346,20.346,0,0,0,2.5-.788c1.205-.427,4.34-2.056,4.576-2.112a2.079,2.079,0,0,0-.431-.7c-.615-.75-1.156-.382-1.8-.052l-2.837,1.242a12.314,12.314,0,0,1-4.567.986c-2.481,0-2.148-2.076,1.433-3.892a27.047,27.047,0,0,1,4.006-1.774,3.438,3.438,0,0,0-1.02-1.359,29.494,29.494,0,0,0-4.683,2.229C324.671,415.024,322.34,416.769,322.34,418.072Z" transform="translate(-294.87 -377.051)" fill-rule="evenodd"/>
      <path id="Path_20" data-name="Path 20" d="M467.115,400.25c-2.371,0-4.442-.567-7.818-.567-1.711,0-4.672.806-5.327,1.7a4.087,4.087,0,0,0,.907,1.247c1.32-.308,2.256-1.02,4.987-1.02,4.8,0,7.352,1.664,12.577-.681a9.01,9.01,0,0,1,1.474-.678c-.16-.6-.812-.881-1.133-1.36a15.814,15.814,0,0,1-5.666,1.36Z" transform="translate(-415.282 -364.894)" fill-rule="evenodd"/>
      <path id="Path_21" data-name="Path 21" d="M877.252,358.225c.146-.628-.06-.575-.539-1.049l-2.833-2.72c-.631-.632-1.189-1.177-1.815-1.812a5.647,5.647,0,0,1-.429-.477c-.064-.076-.039-.049-.1-.124l-7.313-8.1c-.417-.536-.565-.8-1.021-.906-.414.618.072,1.2.815,2.358a36.915,36.915,0,0,0,4.936,6.282,51.226,51.226,0,0,0,7.533,6.292.917.917,0,0,0,.768.252Z" transform="translate(-789.497 -313.804)" fill-rule="evenodd"/>
      <path id="Path_22" data-name="Path 22" d="M177.42,161.693c.6,1.128,1.307,2.034,2,3.437a23.93,23.93,0,0,1,1.738,3.816h.227a10.061,10.061,0,0,1,1.246-1.814,28.87,28.87,0,0,0-3.712-5.465c-.28-.312-.482-.346-.594-.766a1.719,1.719,0,0,0-.906.793Z" transform="translate(-162.301 -147.187)" fill-rule="evenodd"/>
      <path id="Path_23" data-name="Path 23" d="M524.45,315.376h8.839c-.472-.891-.478-1.586-.907-1.586h-6.912c-.349,0-.436.4-.569.678C524.758,314.768,524.605,315.083,524.45,315.376Z" transform="translate(-479.755 -287.047)" fill-rule="evenodd"/>
      <path id="Path_24" data-name="Path 24" d="M206.66,72.843c.575.135.445.32,1.02.453l2.333-3.673a15.917,15.917,0,0,0,1.407-2.333c0-1.506-4.188,3.1-4.76,5.552Z" transform="translate(-189.049 -61.284)" fill-rule="evenodd"/>
      <path id="Path_25" data-name="Path 25" d="M77.926,71.579l.68-.906a14.755,14.755,0,0,0-4.078-3.4,11.212,11.212,0,0,0-1.814-.792c-1.317,0,1.578,2,2.181,2.578.483.459.972.8,1.474,1.245Z" transform="translate(-66.207 -60.813)" fill-rule="evenodd"/>
      <path id="Path_26" data-name="Path 26" d="M72.37,199.953c.5.334.407.185,1.685-.241l1.785-.595,3.556-1.2c-.013-.591-.182-.6-.227-1.134-2.737.637-3.943.794-6.235,2.49-.285.211-.461.3-.563.683Z" transform="translate(-66.203 -180.009)" fill-rule="evenodd"/>
      <path id="Path_27" data-name="Path 27" d="M597.57,59.924c0,2.073,1.88.905,2.737.131C602.034,58.494,597.57,57.158,597.57,59.924Z" transform="translate(-546.643 -53.351)" fill-rule="evenodd"/>
      <path id="Path_28" data-name="Path 28" d="M392.81,120.291c0,1.443,2.343.667,2.737-.337C396.062,118.64,392.81,117.615,392.81,120.291Z" transform="translate(-359.334 -108.506)" fill-rule="evenodd"/>
      <path id="Path_29" data-name="Path 29" d="M440.68,244.963c0,2.754,2.607.658,2.607-.34C443.287,243.642,440.68,243.174,440.68,244.963Z" transform="translate(-403.124 -222.979)" fill-rule="evenodd"/>
    </g>
  </g>
</svg>
