<svg xmlns="http://www.w3.org/2000/svg" width="214.488" height="70.077" viewBox="0 0 214.488 70.077">
  <path id="nykaa" d="M86.27,53.135c2.316-4.446-5.188-3.2-5.188-3.2-2.686,0-3.891,3.242-4.446,4.169L68.531,70.087C67,72.727,61.954,84.028,60.286,86.529c-.139-2.547.046-7.642.093-8.847.324-4.817.648-8.476,1.158-12.876.371-3.427,1.112-7.272.417-10.7-.463-2.131-1.158-2.27-4.215-2.594-3.2-.324-5.373,4.307-6.438,6.484-3.891,8.059-8.244,15.933-11.718,24.178-1.019,2.408-2.27,4.817-3.335,7.179-1.251,2.872-2.409,5.7-3.752,8.522-1.436,2.964-5.929,12.691-7.179,15.748-1.39,3.335-1.667,6.021,3.891,5.882.88,0,2.825.185,5.234-2.408,1.9-2.038,2.27-3.937,3.381-6.762,3.983-10,6.809-16.628,11.162-26.54.417-.973,1.39-3.8,2.362-5.975-.046,3.1-.556,6.809-.787,9.263-.741,8.986-1.251,17.647-2.038,26.54-.093,1.2-.417,2.64.139,3.752s1.945,1.39,3.057,1.528c4.446.556,4.91-1.667,6.3-4.724,1.251-2.733,1.992-4.956,3.1-7.735,3.427-8.569,7.04-17.045,11.023-25.382,1.019-2.131,2.038-4.215,3.15-6.3,2.038-3.844,3.705-7.457,5.929-11.718,1.667-3.057,3.289-6.531,5.049-9.912ZM238.885,77.266c-.51-5.141-7.55-2.547-11.765-1.76-1.575.278-6.438,1.2-12.042,2.27-.232-5.79-.139-4.632-.185-8.152-.139-5.095-.417-9.078-.695-13.571-.185-2.825-.6-6.762-5.7-6.021-5.929.834-6.9,3.8-8.476,7.364-4.122,9.31-3.983,9.356-8.661,19.731-.371.787-2.084,4.956-2.362,5.79-.185.046-.556.139-1.019.278-1.9.417-4.215.926-6.762,1.482l.046-.232c.6-4.724,1.343-9.449,1.992-14.173.6-4.307,1.251-11.348,1.76-15.655.556-4.632-4.817-4.539-4.817-4.539-3.289-.185-4.539.787-6.623,3.474-3.566,4.632-7.874,9.634-11.672,14.729-6.9,9.217-11.95,16.165-18.2,25.428-1.806,2.686-4.585,6.762-6.994,9.958-1.621-3.2-3.011-6.716-4.354-9.958-1.945-4.632-3.381-7.5-4.307-10.56-.834-2.686.185-3.057,2.177-4.585,5.743-4.354,12.228-7.364,18.11-11.533,4.169-2.964,9.171-6.253,13.247-9.31a14.293,14.293,0,0,0,3.659-3.15c1.621-2.223-2.964-4.539-2.964-4.539a8.772,8.772,0,0,0-5.836,1.019,33.312,33.312,0,0,0-5.836,3.983c-3.474,2.686-7.874,5.882-11.3,8.569a97.257,97.257,0,0,1-11.718,8.059l11.765-17.6c3.844-4.956-6.345-6.345-10.236-1.112-3.613,4.678-6.068,8.8-8.893,13.061-6.809,10.143-12.413,20.8-18.017,31.959-2.131,4.261-4.215,8.708-6.16,13.108-.926,2.131-3.659,7.04.093,7.55,8.013,1.019,9.31-2.779,11.116-7.364,2.964-7.55,3.937-8.939,5.836-13.617a101.844,101.844,0,0,1,5.28-11.024c.046-.046.648-1.019.648-1.019.371.787,2.825,8.939,3.15,9.866,1.667,4.4,4.585,14.683,6.253,19.361,1.2,3.891,1.528,5,6.762,4.863,2.594-.046,3.705-1.065,5.419-4.307s9.124-17.045,9.124-17.045c2.223-.371,5.419-.926,7.5-1.3.371-.046,1.2-.232,2.362-.463a13.29,13.29,0,0,0,1.945-.371c.046,0,.046,0,.093-.046,2.038-.417,4.632-.926,7.457-1.482-.509,2.547-2.084,8.152-2.409,9.588,0,0-3.427,13.339,1.019,14.034a10.15,10.15,0,0,0,4.215-.046c5.188-.6,5.28-7.6,5.28-7.6l2.825-18.11c2.038-.417,4.076-.834,6.068-1.2L179.97,112c-.88,2.918-1.528,6.67,3.705,6.67,4.261.232,4.539-2.455,4.539-2.455.093-.417,3.474-11.3,4.307-15.192.556-2.5,2.547-8.939,3.335-11.533,2.223-.417,3.891-.741,4.678-.88.926-.139,2.733-.463,5.095-.834-.046,2.408,0,5.743.046,6.206.509,7.318-.046,14.914,1.482,22.093.232,1.158.695,2.64,2.177,2.64,1.76,0,2.316-.185,4.169-.324,5.373-.463,4.4-5.882,4.076-9.31-.371-3.8-.741-6.994-1.251-10.792a100.652,100.652,0,0,1-.741-12.089v-.093c8.8-1.482,18.3-3.1,19.685-3.335C237.5,82.176,239.349,82.361,238.885,77.266ZM170.1,86.993c0,.046-.046.046-.046.093-6.16,1.343-11.95,2.64-15.192,3.381,3.242-5.419,17.508-25.15,19.685-27.466C173.347,69.114,171.4,80.462,170.1,86.993Zm35.572-7.781v.324c-2.964.556-5.743,1.112-7.967,1.528,2.825-7.318,5.79-16.3,7.55-20.843C205.12,63.6,205.815,75.876,205.676,79.211ZM119.294,57.4c.926-1.714,3.011-5.095.417-6.392-1.528-.741-3.566-1.2-5.141-.417a7.705,7.705,0,0,0-2.918,3.289L101.74,69.485c-1.621,2.223-3.15,5-6.438,5.373-2.177.232-3.752-.695-3.705-2.64a17.085,17.085,0,0,1,2.084-6.345c2.594-4.91,2.918-6.577,5.419-11.44,2.408-4.678-5.465-5.743-7.411-2.362-1.39,2.408-4.076,6.948-4.678,8.476-1.112,2.779-9.449,16.026-5.836,21.26,4.632,5.929,16.952-3.427,10.653,7.364-5.095,8.661-8.291,13.617-12.737,21.63-.973,1.714-2.177,3.427-2.5,5.465-.463,2.872,3.474,2.825,5.188,2.733,3.011-.232,4.446-1.621,5.651-4.354.648-1.436,1.528-3.2,2.177-4.632a309.681,309.681,0,0,1,19.731-36.127C113,68.049,116.238,63.047,119.294,57.4Z" transform="translate(-24.469 -49.627)" fill="#fc2779"/>
</svg>
