<svg xmlns="http://www.w3.org/2000/svg" xmlns:xlink="http://www.w3.org/1999/xlink" width="274.254" height="43.326" viewBox="0 0 274.254 43.326">
  <defs>
    <clipPath id="clip-path">
      <path id="Path_2437" data-name="Path 2437" d="M24.772,10.5A9.9,9.9,0,0,1,23.2,16.017a10.247,10.247,0,0,1-4.494,3.729,16.268,16.268,0,0,1-6.78,1.32H9.142V30.8H.01V.509H12.431q6.405,0,9.37,2.431T24.772,10.5Zm-9.658.31A3.569,3.569,0,0,0,14.039,8a4.654,4.654,0,0,0-3.167-.952H9.142v7.487H11.19Q15.117,14.531,15.114,10.809ZM28.393,30.8V.509H47.254V7.65h-9.73v4.414h9.132v7.141H37.524v4.457h10.43V30.8H28.393Zm39.6,0-2.258-6.528a8.144,8.144,0,0,0-1.7-3.022,3.1,3.1,0,0,0-2.272-1.1h-.353V30.8H52.275V.509H64.4q6.351,0,9.391,2.077A7.079,7.079,0,0,1,76.82,8.833a7.891,7.891,0,0,1-1.767,5.237A10.053,10.053,0,0,1,69.8,17.135v.086a7.338,7.338,0,0,1,3.21,1.919,11.965,11.965,0,0,1,2.294,3.953L78.284,30.8H67.992Zm-.873-20.679a3.167,3.167,0,0,0-.93-2.409,4.075,4.075,0,0,0-2.907-.887H61.406v6.924h1.645A4.189,4.189,0,0,0,66,12.721a3.405,3.405,0,0,0,1.118-2.6ZM90.928,7.65V13.1h9v7.141h-9V30.8H81.8V.509h19V7.65H90.928Zm43.09,7.912a16.737,16.737,0,0,1-1.969,8.165,13.945,13.945,0,0,1-5.489,5.6,16.578,16.578,0,0,1-15.659.065,13.728,13.728,0,0,1-5.439-5.431,16.056,16.056,0,0,1-1.94-7.913,17.5,17.5,0,0,1,1.962-8.324,13.977,13.977,0,0,1,5.511-5.713,16,16,0,0,1,8.071-2.02,15.555,15.555,0,0,1,7.783,1.933,13.221,13.221,0,0,1,5.3,5.518,17.349,17.349,0,0,1,1.868,8.122Zm-9.68.26A10.481,10.481,0,0,0,122.9,9.937a4.48,4.48,0,0,0-3.924-2.157,4.977,4.977,0,0,0-4.241,2.07,9.754,9.754,0,0,0-1.515,5.85,9.6,9.6,0,0,0,1.508,5.763,4.812,4.812,0,0,0,4.1,2.07,4.7,4.7,0,0,0,2.849-.93,5.983,5.983,0,0,0,1.955-2.662,10.912,10.912,0,0,0,.7-4.119Zm29.7,14.981-2.258-6.528a8.144,8.144,0,0,0-1.7-3.022,3.1,3.1,0,0,0-2.272-1.1h-.353V30.8h-9.132V.509h12.125q6.351,0,9.391,2.077a7.079,7.079,0,0,1,3.029,6.246A7.89,7.89,0,0,1,161.1,14.07a10.053,10.053,0,0,1-5.251,3.065v.086a7.338,7.338,0,0,1,3.21,1.919,11.965,11.965,0,0,1,2.294,3.953l2.979,7.711Zm-.873-20.679a3.167,3.167,0,0,0-.93-2.409,4.075,4.075,0,0,0-2.907-.887h-1.875v6.924H149.1a4.189,4.189,0,0,0,2.95-1.031,3.405,3.405,0,0,0,1.118-2.6ZM195.587,30.8V14.2q0-2.348.144-5.157L195.8,7.65h-.252q-.671,3.57-1.031,4.941L190.055,30.8h-8.583l-4.667-18q-.184-.682-.988-5.157h-.26q.3,7.1.3,8.872V30.8h-8.006V.509h13.676l4.155,16.46a19.908,19.908,0,0,1,.4,2.056c.159,1.039.26,1.832.3,2.4h.13q.227-1.926.736-4.544L191.13.509h13.459V30.8h-9Z" transform="translate(-0.01 0.01)" clip-rule="evenodd"/>
    </clipPath>
    <clipPath id="clip-path-2">
      <path id="Path_2440" data-name="Path 2440" d="M16896.5,71.964V41.67h9.133V71.964Z" transform="translate(-16896.5 -41.67)" clip-rule="evenodd"/>
    </clipPath>
    <clipPath id="clip-path-3">
      <path id="Path_2443" data-name="Path 2443" d="M17998.016,29.967a25.625,25.625,0,0,1-8.686,1.356,17.661,17.661,0,0,1-8.346-1.847,12.679,12.679,0,0,1-5.359-5.265,16.229,16.229,0,0,1-1.846-7.869,17.364,17.364,0,0,1,2.068-8.533,14.266,14.266,0,0,1,5.859-5.777,17.972,17.972,0,0,1,8.7-2.041,30.224,30.224,0,0,1,7.609.952V9.374a10.794,10.794,0,0,0-3.023-1.176,15.1,15.1,0,0,0-3.549-.418,7.955,7.955,0,0,0-5.865,2.135,7.8,7.8,0,0,0-2.141,5.785,7.668,7.668,0,0,0,2.141,5.734,7.861,7.861,0,0,0,5.742,2.1,14.818,14.818,0,0,0,6.7-1.695Z" transform="translate(-17973.779 0.01)" clip-rule="evenodd"/>
    </clipPath>
    <clipPath id="clip-path-4">
      <path id="Path_2446" data-name="Path 2446" d="M20218.213,21.629a8.768,8.768,0,0,1-1.615,5.258,9.619,9.619,0,0,1-4.539,3.339,20.021,20.021,0,0,1-7.02,1.1,22.809,22.809,0,0,1-8.7-1.609v-8.3a17.172,17.172,0,0,0,4.205,2.258,12.389,12.389,0,0,0,4.291.858,4.239,4.239,0,0,0,2.328-.541,1.769,1.769,0,0,0,.824-1.58,2.12,2.12,0,0,0-.412-1.3,4.043,4.043,0,0,0-1.248-1.046,22.5,22.5,0,0,0-3.1-1.334q-7.312-2.813-7.312-9.081a8.474,8.474,0,0,1,3.34-7.025q3.343-2.629,8.965-2.633c1.063,0,2.027.043,2.922.13s1.693.188,2.416.31,1.744.368,3.059.721v7.71a15.722,15.722,0,0,0-7.529-2.077,4.653,4.653,0,0,0-2.461.57,1.734,1.734,0,0,0-.93,1.551,1.956,1.956,0,0,0,.75,1.572,13.845,13.845,0,0,0,3.145,1.616,17.446,17.446,0,0,1,6.672,4.162,7.935,7.935,0,0,1,1.953,5.374Z" transform="translate(-20195.91 0.01)" clip-rule="evenodd"/>
    </clipPath>
  </defs>
  <g id="Layer_x0020_1" transform="translate(-0.01 0.01)">
    <g id="_2373507528224" transform="translate(0.01 -0.01)">
      <path id="Path_2436" data-name="Path 2436" d="M24.772,10.5A9.9,9.9,0,0,1,23.2,16.017a10.247,10.247,0,0,1-4.494,3.729,16.268,16.268,0,0,1-6.78,1.32H9.142V30.8H.01V.509H12.431q6.405,0,9.37,2.431T24.772,10.5Zm-9.658.31A3.569,3.569,0,0,0,14.039,8a4.654,4.654,0,0,0-3.167-.952H9.142v7.487H11.19Q15.117,14.531,15.114,10.809ZM28.393,30.8V.509H47.254V7.65h-9.73v4.414h9.132v7.141H37.524v4.457h10.43V30.8H28.393Zm39.6,0-2.258-6.528a8.144,8.144,0,0,0-1.7-3.022,3.1,3.1,0,0,0-2.272-1.1h-.353V30.8H52.275V.509H64.4q6.351,0,9.391,2.077A7.079,7.079,0,0,1,76.82,8.833a7.891,7.891,0,0,1-1.767,5.237A10.053,10.053,0,0,1,69.8,17.135v.086a7.338,7.338,0,0,1,3.21,1.919,11.965,11.965,0,0,1,2.294,3.953L78.284,30.8H67.992Zm-.873-20.679a3.167,3.167,0,0,0-.93-2.409,4.075,4.075,0,0,0-2.907-.887H61.406v6.924h1.645A4.189,4.189,0,0,0,66,12.721a3.405,3.405,0,0,0,1.118-2.6ZM90.928,7.65V13.1h9v7.141h-9V30.8H81.8V.509h19V7.65H90.928Zm43.09,7.912a16.737,16.737,0,0,1-1.969,8.165,13.945,13.945,0,0,1-5.489,5.6,16.578,16.578,0,0,1-15.659.065,13.728,13.728,0,0,1-5.439-5.431,16.056,16.056,0,0,1-1.94-7.913,17.5,17.5,0,0,1,1.962-8.324,13.977,13.977,0,0,1,5.511-5.713,16,16,0,0,1,8.071-2.02,15.555,15.555,0,0,1,7.783,1.933,13.221,13.221,0,0,1,5.3,5.518,17.349,17.349,0,0,1,1.868,8.122Zm-9.68.26A10.481,10.481,0,0,0,122.9,9.937a4.48,4.48,0,0,0-3.924-2.157,4.977,4.977,0,0,0-4.241,2.07,9.754,9.754,0,0,0-1.515,5.85,9.6,9.6,0,0,0,1.508,5.763,4.812,4.812,0,0,0,4.1,2.07,4.7,4.7,0,0,0,2.849-.93,5.983,5.983,0,0,0,1.955-2.662,10.912,10.912,0,0,0,.7-4.119Zm29.7,14.981-2.258-6.528a8.144,8.144,0,0,0-1.7-3.022,3.1,3.1,0,0,0-2.272-1.1h-.353V30.8h-9.132V.509h12.125q6.351,0,9.391,2.077a7.079,7.079,0,0,1,3.029,6.246A7.89,7.89,0,0,1,161.1,14.07a10.053,10.053,0,0,1-5.251,3.065v.086a7.338,7.338,0,0,1,3.21,1.919,11.965,11.965,0,0,1,2.294,3.953l2.979,7.711Zm-.873-20.679a3.167,3.167,0,0,0-.93-2.409,4.075,4.075,0,0,0-2.907-.887h-1.875v6.924H149.1a4.189,4.189,0,0,0,2.95-1.031,3.405,3.405,0,0,0,1.118-2.6ZM195.587,30.8V14.2q0-2.348.144-5.157L195.8,7.65h-.252q-.671,3.57-1.031,4.941L190.055,30.8h-8.583l-4.667-18q-.184-.682-.988-5.157h-.26q.3,7.1.3,8.872V30.8h-8.006V.509h13.676l4.155,16.46a19.908,19.908,0,0,1,.4,2.056c.159,1.039.26,1.832.3,2.4h.13q.227-1.926.736-4.544L191.13.509h13.459V30.8h-9Z" transform="translate(-0.01 0.01)"/>
      <g id="Group_81" data-name="Group 81" transform="translate(0 0)" clip-path="url(#clip-path)">
        <g id="Group_80" data-name="Group 80" transform="translate(-2.325 1.26)">
          <path id="_1" data-name="1" d="M-186.611,124.907l19.7-10.961-.012-.042a1.046,1.046,0,0,1-.034-.262,1.04,1.04,0,0,1,.306-.737,1.04,1.04,0,0,1,.738-.307,1.041,1.041,0,0,1,.738.306,1.041,1.041,0,0,1,.306.738,1.043,1.043,0,0,1-.055.332,1.067,1.067,0,0,1-.043.108l10.418,7.876a1.05,1.05,0,0,1,.217-.144,1.035,1.035,0,0,1,.464-.109,1.04,1.04,0,0,1,.584.179,1.066,1.066,0,0,1,.282.283l24.546-9.818a1.046,1.046,0,0,1-.015-.175,1.04,1.04,0,0,1,.306-.737,1.038,1.038,0,0,1,.738-.307,1.04,1.04,0,0,1,.738.307,1.041,1.041,0,0,1,.306.737,1.044,1.044,0,0,1-.048.312q-.014.046-.033.09l11.839,8.236a1.052,1.052,0,0,1,.23-.162,1.038,1.038,0,0,1,.482-.119,1.04,1.04,0,0,1,.617.2,1.048,1.048,0,0,1,.291.327l38.3-12.022c0-.032,0-.064,0-.1a1.041,1.041,0,0,1,.306-.738,1.044,1.044,0,0,1,.738-.306,1.04,1.04,0,0,1,.737.306,1.038,1.038,0,0,1,.307.738,1.05,1.05,0,0,1-.04.285l-.021.066,16.773,10.383a1.046,1.046,0,0,1,.245-.189,1.041,1.041,0,0,1,.507-.132,1.038,1.038,0,0,1,.623.206,1.047,1.047,0,0,1,.292.335l12.735-3.821,0-.083a1.041,1.041,0,0,1,.306-.738,1.044,1.044,0,0,1,.738-.306,1.041,1.041,0,0,1,.738.306,1.04,1.04,0,0,1,.306.738,1.047,1.047,0,0,1-.027.235l0,.016,11.387,5.568a1.047,1.047,0,0,1,.269-.241,1.041,1.041,0,0,1,.552-.158,1.041,1.041,0,0,1,.555.16,1.041,1.041,0,0,1,.27.244l21.37-10.279,0-.013a1.047,1.047,0,0,1-.027-.232,1.042,1.042,0,0,1,.307-.738,1.041,1.041,0,0,1,.738-.306,1.041,1.041,0,0,1,.738.306,1.044,1.044,0,0,1,.306.738,1.051,1.051,0,0,1-.035.268l-.014.048,8.511,4.863a1.051,1.051,0,0,1,.254-.206,1.043,1.043,0,0,1,.875-.08,1.178,1.178,0,0,1,.127.056l11.042-13.408a1.033,1.033,0,0,1-.127-.2,1.049,1.049,0,1,1,.465.482L7.058,116.518a1.044,1.044,0,1,1-1.861.648,1.053,1.053,0,0,1,.035-.268l.014-.048-8.511-4.863a1.051,1.051,0,0,1-.254.206,1.039,1.039,0,0,1-.523.141,1.043,1.043,0,0,1-.555-.16,1.052,1.052,0,0,1-.27-.244l-21.37,10.279,0,.013a1.057,1.057,0,0,1,.026.232,1.04,1.04,0,0,1-.307.738,1.041,1.041,0,0,1-.737.306,1.041,1.041,0,0,1-.738-.306,1.043,1.043,0,0,1-.306-.738,1.054,1.054,0,0,1,.027-.235l0-.017-11.387-5.568-.005.007a1.05,1.05,0,0,1-.161.162,1.041,1.041,0,0,1-.307.171,1.045,1.045,0,0,1-.347.059q-.044,0-.1-.006c-.037,0-.07-.008-.1-.014a1.043,1.043,0,0,1-.5-.251,1.067,1.067,0,0,1-.213-.27l-12.735,3.821,0,.083a1.041,1.041,0,0,1-.306.738,1.04,1.04,0,0,1-.738.306,1.041,1.041,0,0,1-.737-.306,1.041,1.041,0,0,1-.307-.738,1.05,1.05,0,0,1,.04-.285l.021-.066-16.773-10.384a1.05,1.05,0,0,1-.245.189,1.039,1.039,0,0,1-.507.132,1.041,1.041,0,0,1-.617-.2,1.051,1.051,0,0,1-.291-.327l-38.3,12.022c0,.032,0,.064,0,.1a1.041,1.041,0,0,1-.306.738,1.045,1.045,0,0,1-.738.306,1.04,1.04,0,0,1-.738-.307,1.041,1.041,0,0,1-.306-.737,1.045,1.045,0,0,1,.048-.312q.014-.046.033-.09l-11.839-8.236a1.055,1.055,0,0,1-.23.162,1.037,1.037,0,0,1-.482.119,1.04,1.04,0,0,1-.584-.179,1.066,1.066,0,0,1-.282-.283l-24.546,9.818a1.046,1.046,0,0,1,.015.175,1.041,1.041,0,0,1-.306.738,1.045,1.045,0,0,1-.738.306,1.041,1.041,0,0,1-.737-.306,1.042,1.042,0,0,1-.307-.738,1.044,1.044,0,0,1,.055-.332,1.066,1.066,0,0,1,.043-.108l-10.418-7.876a1.046,1.046,0,0,1-.217.145,1.041,1.041,0,0,1-.465.109,1.039,1.039,0,0,1-.528-.144,1.049,1.049,0,0,1-.257-.213l-19.7,10.962-.213-.383Zm21.121-11.693a.6.6,0,0,0-.427-.177.6.6,0,0,0-.427.176.6.6,0,0,0-.177.428.608.608,0,0,0,.019.152.6.6,0,0,0,.057.142.608.608,0,0,0,.222.228.6.6,0,0,0,.306.082.6.6,0,0,0,.269-.063.607.607,0,0,0,.213-.177.607.607,0,0,0,.091-.172.607.607,0,0,0,.031-.193.6.6,0,0,0-.177-.428Zm184.5-11.457a.6.6,0,1,0-.817.89l.007.006a.6.6,0,0,0,.81-.9ZM6.446,116.6a.627.627,0,0,0-.2-.035.6.6,0,0,0-.3.081.609.609,0,0,0-.222.224.6.6,0,0,0-.06.144.617.617,0,0,0-.02.156.6.6,0,1,0,.809-.57Zm-10.06-5.734a.605.605,0,0,0-.427-.177.6.6,0,0,0-.429.177.6.6,0,0,0-.176.428.615.615,0,0,0,.015.136.6.6,0,0,0,.044.127.609.609,0,0,0,.224.251.6.6,0,0,0,.322.091.6.6,0,0,0,.3-.081.608.608,0,0,0,.222-.224.6.6,0,0,0,.059-.144.614.614,0,0,0,.02-.156.6.6,0,0,0-.176-.428Zm-23.315,11.079a.6.6,0,0,0-.321-.091.6.6,0,0,0-.32.091.609.609,0,0,0-.224.248.6.6,0,0,0-.045.129.618.618,0,0,0-.015.137.6.6,0,0,0,.176.427.607.607,0,0,0,.428.177.6.6,0,0,0,.428-.177.6.6,0,0,0,.176-.427.622.622,0,0,0-.014-.136.6.6,0,0,0-.044-.126A.6.6,0,0,0-26.929,121.942Zm-13.114-6.378a.6.6,0,0,0-.427-.177.6.6,0,0,0-.428.176.605.605,0,0,0-.177.428.628.628,0,0,0,.006.089.624.624,0,0,0,.019.086.607.607,0,0,0,.173.274.607.607,0,0,0,.289.145.808.808,0,0,0,.118.011.6.6,0,0,0,.2-.034.6.6,0,0,0,.178-.1.61.61,0,0,0,.094-.094.6.6,0,0,0,.07-.112.608.608,0,0,0,.046-.129.611.611,0,0,0,.015-.137A.6.6,0,0,0-40.043,115.564ZM-54.8,119.912a.6.6,0,0,0-.36-.119.6.6,0,0,0-.294.075.608.608,0,0,0-.22.211.6.6,0,0,0-.067.153.613.613,0,0,0-.023.167.6.6,0,0,0,.176.427.6.6,0,0,0,.428.177.6.6,0,0,0,.427-.177.6.6,0,0,0,.177-.427.64.64,0,0,0-.006-.088.636.636,0,0,0-.019-.086.608.608,0,0,0-.219-.312Zm-18.441-11.4a.6.6,0,0,0-.428-.177.6.6,0,0,0-.428.177.606.606,0,0,0-.177.428.631.631,0,0,0,.007.092.607.607,0,0,0,.02.089.606.606,0,0,0,.22.306.6.6,0,0,0,.358.116.6.6,0,0,0,.294-.075.61.61,0,0,0,.221-.211.584.584,0,0,0,.067-.152.6.6,0,0,0,.023-.166.6.6,0,0,0-.177-.428Zm-40.319,12.572a.6.6,0,0,0-.358-.116.6.6,0,0,0-.28.068.608.608,0,0,0-.216.192.6.6,0,0,0-.081.164.609.609,0,0,0-.027.181.6.6,0,0,0,.177.428.6.6,0,0,0,.427.176.6.6,0,0,0,.427-.176.606.606,0,0,0,.177-.428.616.616,0,0,0-.007-.092.607.607,0,0,0-.02-.089.606.606,0,0,0-.22-.306ZM-127,111.744a.6.6,0,0,0-.427-.176.6.6,0,0,0-.428.177.6.6,0,0,0-.177.428.617.617,0,0,0,.011.115.6.6,0,0,0,.032.11.609.609,0,0,0,.223.277.61.61,0,0,0,.339.1.6.6,0,0,0,.28-.068.609.609,0,0,0,.216-.192.6.6,0,0,0,.081-.164.608.608,0,0,0,.027-.181A.6.6,0,0,0-127,111.744Zm-26.529,10.5a.61.61,0,0,0-.339-.1.6.6,0,0,0-.269.063.6.6,0,0,0-.214.177.606.606,0,0,0-.091.172.607.607,0,0,0-.031.193.6.6,0,0,0,.176.427.6.6,0,0,0,.428.177.6.6,0,0,0,.427-.176.606.606,0,0,0,.177-.428.618.618,0,0,0-.011-.115.6.6,0,0,0-.032-.11A.61.61,0,0,0-153.532,122.247Z" transform="translate(186.611 -101.14)" fill="#fff"/>
        </g>
      </g>
      <path id="Path_2438" data-name="Path 2438" d="M24.772,10.5A9.9,9.9,0,0,1,23.2,16.017a10.247,10.247,0,0,1-4.494,3.729,16.268,16.268,0,0,1-6.78,1.32H9.142V30.8H.01V.509H12.431q6.405,0,9.37,2.431T24.772,10.5Zm-9.658.31A3.569,3.569,0,0,0,14.039,8a4.654,4.654,0,0,0-3.167-.952H9.142v7.487H11.19Q15.117,14.531,15.114,10.809ZM28.393,30.8V.509H47.254V7.65h-9.73v4.414h9.132v7.141H37.524v4.457h10.43V30.8H28.393Zm39.6,0-2.258-6.528a8.144,8.144,0,0,0-1.7-3.022,3.1,3.1,0,0,0-2.272-1.1h-.353V30.8H52.275V.509H64.4q6.351,0,9.391,2.077A7.079,7.079,0,0,1,76.82,8.833a7.891,7.891,0,0,1-1.767,5.237A10.053,10.053,0,0,1,69.8,17.135v.086a7.338,7.338,0,0,1,3.21,1.919,11.965,11.965,0,0,1,2.294,3.953L78.284,30.8H67.992Zm-.873-20.679a3.167,3.167,0,0,0-.93-2.409,4.075,4.075,0,0,0-2.907-.887H61.406v6.924h1.645A4.189,4.189,0,0,0,66,12.721a3.405,3.405,0,0,0,1.118-2.6ZM90.928,7.65V13.1h9v7.141h-9V30.8H81.8V.509h19V7.65H90.928Zm43.09,7.912a16.737,16.737,0,0,1-1.969,8.165,13.945,13.945,0,0,1-5.489,5.6,16.578,16.578,0,0,1-15.659.065,13.728,13.728,0,0,1-5.439-5.431,16.056,16.056,0,0,1-1.94-7.913,17.5,17.5,0,0,1,1.962-8.324,13.977,13.977,0,0,1,5.511-5.713,16,16,0,0,1,8.071-2.02,15.555,15.555,0,0,1,7.783,1.933,13.221,13.221,0,0,1,5.3,5.518,17.349,17.349,0,0,1,1.868,8.122Zm-9.68.26A10.481,10.481,0,0,0,122.9,9.937a4.48,4.48,0,0,0-3.924-2.157,4.977,4.977,0,0,0-4.241,2.07,9.754,9.754,0,0,0-1.515,5.85,9.6,9.6,0,0,0,1.508,5.763,4.812,4.812,0,0,0,4.1,2.07,4.7,4.7,0,0,0,2.849-.93,5.983,5.983,0,0,0,1.955-2.662,10.912,10.912,0,0,0,.7-4.119Zm29.7,14.981-2.258-6.528a8.144,8.144,0,0,0-1.7-3.022,3.1,3.1,0,0,0-2.272-1.1h-.353V30.8h-9.132V.509h12.125q6.351,0,9.391,2.077a7.079,7.079,0,0,1,3.029,6.246A7.89,7.89,0,0,1,161.1,14.07a10.053,10.053,0,0,1-5.251,3.065v.086a7.338,7.338,0,0,1,3.21,1.919,11.965,11.965,0,0,1,2.294,3.953l2.979,7.711Zm-.873-20.679a3.167,3.167,0,0,0-.93-2.409,4.075,4.075,0,0,0-2.907-.887h-1.875v6.924H149.1a4.189,4.189,0,0,0,2.95-1.031,3.405,3.405,0,0,0,1.118-2.6ZM195.587,30.8V14.2q0-2.348.144-5.157L195.8,7.65h-.252q-.671,3.57-1.031,4.941L190.055,30.8h-8.583l-4.667-18q-.184-.682-.988-5.157h-.26q.3,7.1.3,8.872V30.8h-8.006V.509h13.676l4.155,16.46a19.908,19.908,0,0,1,.4,2.056c.159,1.039.26,1.832.3,2.4h.13q.227-1.926.736-4.544L191.13.509h13.459V30.8h-9Z" transform="translate(-0.01 0.01)" fill="none"/>
      <path id="Path_2439" data-name="Path 2439" d="M16896.5,71.964V41.67h9.131V71.964Z" transform="translate(-16685.957 -41.151)" fill="#2980be"/>
      <path id="Path_2441" data-name="Path 2441" d="M16896.5,71.964V41.67h9.131V71.964Z" transform="translate(-16685.957 -41.151)" fill="none"/>
      <path id="Path_2442" data-name="Path 2442" d="M17998.016,29.967a25.625,25.625,0,0,1-8.686,1.356,17.661,17.661,0,0,1-8.346-1.847,12.679,12.679,0,0,1-5.359-5.265,16.229,16.229,0,0,1-1.846-7.869,17.364,17.364,0,0,1,2.068-8.533,14.266,14.266,0,0,1,5.859-5.777,17.972,17.972,0,0,1,8.7-2.041,30.224,30.224,0,0,1,7.609.952V9.374a10.794,10.794,0,0,0-3.023-1.176,15.1,15.1,0,0,0-3.549-.418,7.955,7.955,0,0,0-5.865,2.135,7.8,7.8,0,0,0-2.141,5.785,7.668,7.668,0,0,0,2.141,5.734,7.861,7.861,0,0,0,5.742,2.1,14.818,14.818,0,0,0,6.7-1.695Z" transform="translate(-17749.811 0.01)" fill="#6fb236"/>
      <g id="Group_87" data-name="Group 87" transform="translate(223.968 0)" clip-path="url(#clip-path-3)">
        <g id="Group_86" data-name="Group 86" transform="translate(-226.187 1.48)">
          <g id="Group_85" data-name="Group 85" transform="translate(0)">
            <path id="_1-2" data-name="1" d="M-178.08,207.815l20.587-11.458,12.045,9.107,26.441-10.576,13.514,9.4,40.249-12.633,18.508,11.458,14.689-4.407,13.221,6.463L4.382,194.007l10.283,5.876L27,184.9" transform="translate(178.08 -184.076)" fill="none" stroke="#fff" stroke-miterlimit="2.613" stroke-width="35.28" fill-rule="evenodd"/>
            <circle id="Ellipse_16" data-name="Ellipse 16" cx="0.824" cy="0.824" r="0.824" transform="translate(19.763 11.458)" fill="#fff"/>
            <circle id="Ellipse_17" data-name="Ellipse 17" cx="0.824" cy="0.824" r="0.824" transform="translate(31.808 20.565)" fill="#fff"/>
            <circle id="Ellipse_18" data-name="Ellipse 18" cx="0.824" cy="0.824" r="0.824" transform="translate(58.249 9.989)" fill="#fff"/>
            <circle id="Ellipse_19" data-name="Ellipse 19" cx="0.824" cy="0.824" r="0.824" transform="translate(71.763 19.39)" fill="#fff"/>
            <circle id="Ellipse_20" data-name="Ellipse 20" cx="0.824" cy="0.824" r="0.824" transform="translate(112.012 6.757)" fill="#fff"/>
            <circle id="Ellipse_21" data-name="Ellipse 21" cx="0.824" cy="0.824" r="0.824" transform="translate(130.52 18.215)" fill="#fff"/>
            <circle id="Ellipse_22" data-name="Ellipse 22" cx="0.824" cy="0.824" r="0.824" transform="translate(145.209 13.808)" fill="#fff"/>
            <circle id="Ellipse_23" data-name="Ellipse 23" cx="0.824" cy="0.824" r="0.824" transform="translate(158.43 20.271)" fill="#fff"/>
            <circle id="Ellipse_24" data-name="Ellipse 24" cx="0.824" cy="0.824" r="0.824" transform="translate(181.638 9.107)" fill="#fff"/>
            <circle id="Ellipse_25" data-name="Ellipse 25" cx="0.824" cy="0.824" r="0.824" transform="translate(191.921 14.983)" fill="#fff"/>
            <circle id="Ellipse_26" data-name="Ellipse 26" cx="0.824" cy="0.824" r="0.824" transform="translate(204.26)" fill="#fff"/>
          </g>
        </g>
      </g>
      <path id="Path_2444" data-name="Path 2444" d="M17998.016,29.967a25.625,25.625,0,0,1-8.686,1.356,17.661,17.661,0,0,1-8.346-1.847,12.679,12.679,0,0,1-5.359-5.265,16.229,16.229,0,0,1-1.846-7.869,17.364,17.364,0,0,1,2.068-8.533,14.266,14.266,0,0,1,5.859-5.777,17.972,17.972,0,0,1,8.7-2.041,30.224,30.224,0,0,1,7.609.952V9.374a10.794,10.794,0,0,0-3.023-1.176,15.1,15.1,0,0,0-3.549-.418,7.955,7.955,0,0,0-5.865,2.135,7.8,7.8,0,0,0-2.141,5.785,7.668,7.668,0,0,0,2.141,5.734,7.861,7.861,0,0,0,5.742,2.1,14.818,14.818,0,0,0,6.7-1.695Z" transform="translate(-17749.811 0.01)" fill="none"/>
      <path id="Path_2445" data-name="Path 2445" d="M20218.213,21.629a8.768,8.768,0,0,1-1.615,5.258,9.619,9.619,0,0,1-4.539,3.339,20.021,20.021,0,0,1-7.02,1.1,22.809,22.809,0,0,1-8.7-1.609v-8.3a17.172,17.172,0,0,0,4.205,2.258,12.389,12.389,0,0,0,4.291.858,4.239,4.239,0,0,0,2.328-.541,1.769,1.769,0,0,0,.824-1.58,2.12,2.12,0,0,0-.412-1.3,4.043,4.043,0,0,0-1.248-1.046,22.5,22.5,0,0,0-3.1-1.334q-7.312-2.813-7.312-9.081a8.474,8.474,0,0,1,3.34-7.025q3.343-2.629,8.965-2.633c1.063,0,2.027.043,2.922.13s1.693.188,2.416.31,1.744.368,3.059.721v7.71a15.722,15.722,0,0,0-7.529-2.077,4.653,4.653,0,0,0-2.461.57,1.734,1.734,0,0,0-.93,1.551,1.956,1.956,0,0,0,.75,1.572,13.845,13.845,0,0,0,3.145,1.616,17.446,17.446,0,0,1,6.672,4.162,7.935,7.935,0,0,1,1.953,5.374Z" transform="translate(-19944.254 0.01)" fill="#e41d2b"/>
      <g id="Group_90" data-name="Group 90" transform="translate(251.657 0)" clip-path="url(#clip-path-4)">
        <g id="Group_89" data-name="Group 89" transform="translate(-253.876 1.48)">
          <g id="Group_88" data-name="Group 88" transform="translate(0)">
            <path id="_1-3" data-name="1" d="M-178.08,207.815l20.587-11.458,12.045,9.107,26.441-10.576,13.514,9.4,40.249-12.633,18.508,11.458,14.689-4.407,13.221,6.463L4.382,194.007l10.283,5.876L27,184.9" transform="translate(178.08 -184.076)" fill="none" stroke="#fff" stroke-miterlimit="2.613" stroke-width="35.28" fill-rule="evenodd"/>
            <circle id="Ellipse_27" data-name="Ellipse 27" cx="0.824" cy="0.824" r="0.824" transform="translate(19.763 11.458)" fill="#fff"/>
            <circle id="Ellipse_28" data-name="Ellipse 28" cx="0.824" cy="0.824" r="0.824" transform="translate(31.808 20.565)" fill="#fff"/>
            <circle id="Ellipse_29" data-name="Ellipse 29" cx="0.824" cy="0.824" r="0.824" transform="translate(58.249 9.989)" fill="#fff"/>
            <circle id="Ellipse_30" data-name="Ellipse 30" cx="0.824" cy="0.824" r="0.824" transform="translate(71.763 19.39)" fill="#fff"/>
            <circle id="Ellipse_31" data-name="Ellipse 31" cx="0.824" cy="0.824" r="0.824" transform="translate(112.012 6.757)" fill="#fff"/>
            <circle id="Ellipse_32" data-name="Ellipse 32" cx="0.824" cy="0.824" r="0.824" transform="translate(130.52 18.215)" fill="#fff"/>
            <circle id="Ellipse_33" data-name="Ellipse 33" cx="0.824" cy="0.824" r="0.824" transform="translate(145.209 13.808)" fill="#fff"/>
            <circle id="Ellipse_34" data-name="Ellipse 34" cx="0.824" cy="0.824" r="0.824" transform="translate(158.43 20.271)" fill="#fff"/>
            <circle id="Ellipse_35" data-name="Ellipse 35" cx="0.824" cy="0.824" r="0.824" transform="translate(181.638 9.107)" fill="#fff"/>
            <circle id="Ellipse_36" data-name="Ellipse 36" cx="0.824" cy="0.824" r="0.824" transform="translate(191.921 14.983)" fill="#fff"/>
            <circle id="Ellipse_37" data-name="Ellipse 37" cx="0.824" cy="0.824" r="0.824" transform="translate(204.26)" fill="#fff"/>
          </g>
        </g>
      </g>
      <path id="Path_2447" data-name="Path 2447" d="M20218.213,21.629a8.768,8.768,0,0,1-1.615,5.258,9.619,9.619,0,0,1-4.539,3.339,20.021,20.021,0,0,1-7.02,1.1,22.809,22.809,0,0,1-8.7-1.609v-8.3a17.172,17.172,0,0,0,4.205,2.258,12.389,12.389,0,0,0,4.291.858,4.239,4.239,0,0,0,2.328-.541,1.769,1.769,0,0,0,.824-1.58,2.12,2.12,0,0,0-.412-1.3,4.043,4.043,0,0,0-1.248-1.046,22.5,22.5,0,0,0-3.1-1.334q-7.312-2.813-7.312-9.081a8.474,8.474,0,0,1,3.34-7.025q3.343-2.629,8.965-2.633c1.063,0,2.027.043,2.922.13s1.693.188,2.416.31,1.744.368,3.059.721v7.71a15.722,15.722,0,0,0-7.529-2.077,4.653,4.653,0,0,0-2.461.57,1.734,1.734,0,0,0-.93,1.551,1.956,1.956,0,0,0,.75,1.572,13.845,13.845,0,0,0,3.145,1.616,17.446,17.446,0,0,1,6.672,4.162,7.935,7.935,0,0,1,1.953,5.374Z" transform="translate(-19944.254 0.01)" fill="none"/>
      <path id="Path_2448" data-name="Path 2448" d="M13508.715,2859a1.635,1.635,0,0,1-.549,1.283,2.088,2.088,0,0,1-1.44.488H13506v2.077h-.642v-5.485h1.507a1.981,1.981,0,0,1,1.362.431A1.53,1.53,0,0,1,13508.715,2859Zm-.674.033q0-1.091-1.284-1.091H13506v2.249h.673a1.523,1.523,0,0,0,1.014-.3A1.069,1.069,0,0,0,13508.041,2859.03Zm4.449,2.012h-2.767a1.465,1.465,0,0,0,.351,1.014,1.222,1.222,0,0,0,.929.35,1.918,1.918,0,0,0,1.213-.428v.585a2.249,2.249,0,0,1-1.361.376,1.645,1.645,0,0,1-1.311-.541,2.206,2.206,0,0,1-.471-1.5,2.387,2.387,0,0,1,.235-1.062,1.8,1.8,0,0,1,.649-.743,1.664,1.664,0,0,1,.918-.264,1.484,1.484,0,0,1,1.188.495,2.066,2.066,0,0,1,.426,1.386Zm-.643-.533a1.3,1.3,0,0,0-.263-.844.888.888,0,0,0-.717-.3,1.012,1.012,0,0,0-.746.313,1.468,1.468,0,0,0-.391.831Zm3.605-.947a.842.842,0,0,0-1.157.265,1.822,1.822,0,0,0-.261,1.021v2h-.627v-3.918h.627v.807h.016a1.387,1.387,0,0,1,.4-.641.928.928,0,0,1,.625-.236,1.038,1.038,0,0,1,.376.053Zm2.768-1.967a.833.833,0,0,0-.417-.1q-.656,0-.656.829v.6h.916v.533h-.916v3.385h-.627v-3.385h-.666v-.533h.666v-.635a1.343,1.343,0,0,1,.351-.965,1.192,1.192,0,0,1,.9-.367,1.235,1.235,0,0,1,.454.069Zm4.074,3.274a2.118,2.118,0,0,1-.528,1.5,1.854,1.854,0,0,1-1.422.568,1.806,1.806,0,0,1-1.386-.553,2.034,2.034,0,0,1-.519-1.455,2.149,2.149,0,0,1,.53-1.535,1.921,1.921,0,0,1,1.466-.564,1.744,1.744,0,0,1,1.364.544A2.141,2.141,0,0,1,13522.295,2860.87Zm-.643.023a1.733,1.733,0,0,0-.326-1.133,1.148,1.148,0,0,0-.935-.395,1.2,1.2,0,0,0-.957.4,1.684,1.684,0,0,0-.353,1.14,1.6,1.6,0,0,0,.354,1.1,1.217,1.217,0,0,0,.955.4,1.15,1.15,0,0,0,.936-.39A1.71,1.71,0,0,0,13521.652,2860.894Zm3.66-1.331a.778.778,0,0,0-.479-.127.786.786,0,0,0-.678.392,1.814,1.814,0,0,0-.262,1.021v2h-.627v-3.918h.627v.807h.016a1.389,1.389,0,0,1,.4-.641.924.924,0,0,1,.625-.236,1.032,1.032,0,0,1,.375.053Zm6.231,3.282h-.627v-2.25a1.691,1.691,0,0,0-.2-.944.771.771,0,0,0-.676-.285.837.837,0,0,0-.684.367,1.4,1.4,0,0,0-.282.876v2.236h-.627v-2.327q0-1.152-.892-1.152a.824.824,0,0,0-.681.346,1.424,1.424,0,0,0-.269.9v2.236h-.627v-3.918h.627v.621h.016a1.327,1.327,0,0,1,1.213-.714,1.177,1.177,0,0,1,.689.214,1.093,1.093,0,0,1,.425.6,1.4,1.4,0,0,1,1.3-.813q1.293,0,1.293,1.6Z" transform="translate(-13337.073 -2821.36)"/>
      <path id="Path_2449" data-name="Path 2449" d="M15855.371,2869.678h-.643v-5.485h.643Zm4.609,0h-.627v-2.236q0-1.244-.91-1.243a1,1,0,0,0-.775.35,1.3,1.3,0,0,0-.312.893v2.236h-.627v-3.918h.627v.651h.016a1.409,1.409,0,0,1,1.287-.744,1.19,1.19,0,0,1,.984.421,1.854,1.854,0,0,1,.338,1.193Zm3.322-1.049a1.012,1.012,0,0,1-.393.825,1.6,1.6,0,0,1-1.041.317,1.942,1.942,0,0,1-.973-.236v-.671a1.586,1.586,0,0,0,1.018.375q.747,0,.746-.549a.482.482,0,0,0-.145-.362,2.828,2.828,0,0,0-.662-.376,1.984,1.984,0,0,1-.734-.477,1.088,1.088,0,0,1,.176-1.485,1.494,1.494,0,0,1,.99-.325,1.891,1.891,0,0,1,.838.183v.629a1.462,1.462,0,0,0-.887-.279.766.766,0,0,0-.5.154.483.483,0,0,0-.189.395.532.532,0,0,0,.145.4,2.219,2.219,0,0,0,.6.332,2.162,2.162,0,0,1,.785.5A.964.964,0,0,1,15863.3,2868.63Zm1.652-4.275a.4.4,0,0,1-.121.294.431.431,0,0,1-.584,0,.411.411,0,0,1,.293-.7.4.4,0,0,1,.295.119A.392.392,0,0,1,15864.955,2864.355Zm-.107,5.323h-.627v-3.918h.627Zm4.586-.313q0,2.155-2.068,2.155a2.83,2.83,0,0,1-1.27-.272v-.628a2.589,2.589,0,0,0,1.26.367q1.45,0,1.451-1.536v-.432h-.016a1.467,1.467,0,0,1-1.348.754,1.511,1.511,0,0,1-1.42-.914,2.751,2.751,0,0,1,.285-2.6,1.609,1.609,0,0,1,1.307-.589,1.28,1.28,0,0,1,1.176.633h.016v-.54h.627Zm-.627-1.458v-.578a1.1,1.1,0,0,0-.326-.8,1.059,1.059,0,0,0-.777-.328,1.083,1.083,0,0,0-.912.424,1.908,1.908,0,0,0-.328,1.183,1.619,1.619,0,0,0,.314,1.039,1.017,1.017,0,0,0,.838.395,1.1,1.1,0,0,0,.857-.374A1.382,1.382,0,0,0,15868.807,2867.907Zm5.146,1.771h-.625v-2.258q0-1.22-.912-1.221a.987.987,0,0,0-.779.358,1.334,1.334,0,0,0-.307.9v2.22h-.627v-5.8h.627v2.532h.016a1.421,1.421,0,0,1,1.285-.746q1.324,0,1.322,1.6Zm3-.039a1.215,1.215,0,0,1-.59.125c-.682,0-1.025-.385-1.025-1.155v-2.316h-.672v-.533h.672v-.957l.627-.2v1.159h.988v.533h-.988v2.211a.9.9,0,0,0,.137.562.54.54,0,0,0,.447.166.664.664,0,0,0,.4-.127Z" transform="translate(-15657.166 -2828.194)" fill="#2980be"/>
      <path id="Path_2450" data-name="Path 2450" d="M17834.145,2869.452a3.223,3.223,0,0,1-1.512.32,2.635,2.635,0,0,1-1.35-.341,2.287,2.287,0,0,1-.91-.965,3.076,3.076,0,0,1-.32-1.428,3.207,3.207,0,0,1,.355-1.514,2.58,2.58,0,0,1,1-1.05,2.808,2.808,0,0,1,1.441-.375,3.258,3.258,0,0,1,1.295.226v.683a2.636,2.636,0,0,0-1.3-.329,2.1,2.1,0,0,0-1.1.287,1.929,1.929,0,0,0-.748.818,2.706,2.706,0,0,0-.266,1.217,2.546,2.546,0,0,0,.25,1.15,1.787,1.787,0,0,0,.7.772,2.007,2.007,0,0,0,1.039.269,2.684,2.684,0,0,0,1.426-.367Zm3.807.226h-.625v-.613h-.016a1.313,1.313,0,0,1-1.207.707,1.3,1.3,0,0,1-.9-.308,1.056,1.056,0,0,1-.342-.828q0-1.093,1.293-1.277l1.176-.164q0-1-.809-1a1.933,1.933,0,0,0-1.275.478v-.641a1.893,1.893,0,0,1,.588-.25,2.745,2.745,0,0,1,.742-.12q1.38,0,1.379,1.465Zm-.625-1.982-.951.135a1.388,1.388,0,0,0-.68.231.653.653,0,0,0-.2.526.59.59,0,0,0,.211.474.808.808,0,0,0,.541.178,1,1,0,0,0,.77-.329,1.168,1.168,0,0,0,.3-.824Zm5.412-.1a2.416,2.416,0,0,1-.484,1.583,1.6,1.6,0,0,1-1.3.589,1.293,1.293,0,0,1-1.176-.658h-.018v2.366h-.625v-5.72h.625v.688h.018a1.484,1.484,0,0,1,1.355-.782,1.452,1.452,0,0,1,1.17.52A2.134,2.134,0,0,1,17842.738,2867.6Zm-.643-.008a1.6,1.6,0,0,0-.3-1.015.988.988,0,0,0-.822-.378,1.126,1.126,0,0,0-.877.375,1.38,1.38,0,0,0-.338.957v.548a1.143,1.143,0,0,0,.324.827,1.075,1.075,0,0,0,.8.333,1.043,1.043,0,0,0,.889-.437,1.988,1.988,0,0,0,.324-1.21Zm4.389,2.086h-.627v-.613h-.016a1.42,1.42,0,0,1-2.111.4,1.062,1.062,0,0,1-.342-.828q0-1.093,1.293-1.277l1.176-.164c0-.664-.268-1-.807-1a1.938,1.938,0,0,0-1.277.478v-.641a1.908,1.908,0,0,1,.59-.25,2.709,2.709,0,0,1,.74-.12q1.383,0,1.381,1.465Zm-.627-1.982-.949.135a1.388,1.388,0,0,0-.68.231.647.647,0,0,0-.2.526.6.6,0,0,0,.211.474.811.811,0,0,0,.541.178,1,1,0,0,0,.77-.329,1.168,1.168,0,0,0,.3-.824Zm5.412-.1a2.432,2.432,0,0,1-.48,1.575,1.585,1.585,0,0,1-1.3.6,1.3,1.3,0,0,1-1.176-.657h-.016v.563h-.627v-5.8h.627v2.57h.016a1.485,1.485,0,0,1,1.355-.783,1.456,1.456,0,0,1,1.172.52A2.144,2.144,0,0,1,17851.27,2867.6Zm-.641-.008a1.6,1.6,0,0,0-.3-1.015.991.991,0,0,0-.824-.378,1.122,1.122,0,0,0-.875.375,1.38,1.38,0,0,0-.338.957v.548a1.135,1.135,0,0,0,.324.827,1.064,1.064,0,0,0,.8.333,1.047,1.047,0,0,0,.891-.437,2,2,0,0,0,.324-1.21Zm2.35-3.238a.391.391,0,0,1-.125.294.425.425,0,0,1-.58,0,.4.4,0,0,1-.119-.3.412.412,0,0,1,.824,0Zm-.109,5.323h-.627v-3.918h.627Zm1.9,0h-.627v-5.8h.627Zm2.006-5.323a.391.391,0,0,1-.125.294.408.408,0,0,1-.289.116.415.415,0,0,1-.293-.112.4.4,0,0,1-.117-.3.4.4,0,0,1,.117-.284.39.39,0,0,1,.293-.12.4.4,0,0,1,.295.119A.394.394,0,0,1,17856.773,2864.354Zm-.109,5.323h-.627v-3.918h.627Zm3.088-.039a1.2,1.2,0,0,1-.588.125q-1.025,0-1.025-1.154v-2.317h-.672v-.533h.672v-.957l.627-.2v1.16h.986v.533h-.986v2.211a.905.905,0,0,0,.135.562.54.54,0,0,0,.447.166.658.658,0,0,0,.4-.127Zm3.957-3.879-1.8,4.546c-.322.808-.771,1.213-1.354,1.213a1.559,1.559,0,0,1-.408-.046v-.564a1.124,1.124,0,0,0,.365.069.771.771,0,0,0,.717-.563l.314-.745-1.531-3.91h.7l1.057,3.015.08.3h.023c.01-.056.037-.152.076-.287l1.113-3.026Z" transform="translate(-17607.875 -2828.193)" fill="#6fb236"/>
      <path id="Path_2451" data-name="Path 2451" d="M20720.6,2868.291a1.32,1.32,0,0,1-.492,1.087,2.065,2.065,0,0,1-1.332.395,2.811,2.811,0,0,1-.691-.1,1.827,1.827,0,0,1-.545-.213v-.76a1.864,1.864,0,0,0,.615.352,2.047,2.047,0,0,0,.711.141q1.055,0,1.055-.824a.854.854,0,0,0-.225-.592,4.246,4.246,0,0,0-.928-.648,3.266,3.266,0,0,1-.949-.727,1.409,1.409,0,0,1,.213-1.895,1.9,1.9,0,0,1,1.258-.408,2.262,2.262,0,0,1,1.08.2v.721a1.756,1.756,0,0,0-1.115-.337,1.179,1.179,0,0,0-.746.227.728.728,0,0,0-.287.6.929.929,0,0,0,.086.437,1.052,1.052,0,0,0,.289.325,5.979,5.979,0,0,0,.693.432,3.537,3.537,0,0,1,1.018.765A1.267,1.267,0,0,1,20720.6,2868.291Zm3.779,1.387h-.627v-.613h-.014a1.422,1.422,0,0,1-2.113.4,1.061,1.061,0,0,1-.34-.828q0-1.094,1.291-1.277l1.176-.165c0-.663-.268-.995-.807-.995a1.941,1.941,0,0,0-1.277.478v-.641a1.9,1.9,0,0,1,.59-.249,2.722,2.722,0,0,1,.742-.12q1.38,0,1.379,1.465Zm-.627-1.982-.949.135a1.39,1.39,0,0,0-.68.231.647.647,0,0,0-.2.526.6.6,0,0,0,.211.474.811.811,0,0,0,.541.178,1.008,1.008,0,0,0,.771-.329,1.175,1.175,0,0,0,.3-.824Zm2.436,1.982h-.627v-5.8h.627Zm4.391-1.8h-2.768a1.466,1.466,0,0,0,.352,1.013,1.219,1.219,0,0,0,.928.35,1.917,1.917,0,0,0,1.213-.428v.585a2.247,2.247,0,0,1-1.361.376,1.646,1.646,0,0,1-1.311-.541,2.211,2.211,0,0,1-.471-1.5,2.413,2.413,0,0,1,.234-1.062,1.812,1.812,0,0,1,.65-.743,1.666,1.666,0,0,1,.918-.264,1.486,1.486,0,0,1,1.189.495,2.065,2.065,0,0,1,.426,1.386Zm-.643-.533a1.3,1.3,0,0,0-.264-.844.887.887,0,0,0-.717-.3,1.012,1.012,0,0,0-.746.313,1.482,1.482,0,0,0-.391.831Zm3.7,1.286a1.012,1.012,0,0,1-.393.825,1.6,1.6,0,0,1-1.043.317,1.934,1.934,0,0,1-.971-.236v-.671a1.586,1.586,0,0,0,1.018.375q.747,0,.746-.549a.482.482,0,0,0-.145-.362,2.784,2.784,0,0,0-.662-.376,1.967,1.967,0,0,1-.734-.477,1.086,1.086,0,0,1,.178-1.485,1.489,1.489,0,0,1,.988-.325,1.891,1.891,0,0,1,.838.183v.629a1.458,1.458,0,0,0-.887-.279.762.762,0,0,0-.5.154.483.483,0,0,0-.189.395.525.525,0,0,0,.146.4,2.137,2.137,0,0,0,.6.332,2.169,2.169,0,0,1,.783.5A.965.965,0,0,1,20733.635,2868.63Z" transform="translate(-20459.381 -2828.194)" fill="#e41d2b"/>
    </g>
  </g>
</svg>
